<svg viewBox="0 0 135 60" xmlns="http://www.w3.org/2000/svg">
  <path d="M 27.917 25.544 L 39.892 26.853 L 30.89 35.063 L 33.333 46.909 L 22.994 40.797 L 12.164 46.781 L 14.899 34.994 L 6.035 26.921 L 18.071 25.533 L 20.791 19.919 L 21.932 21.226 L 23.383 24.824 L 24.645 25.187 L 27.91 25.872 L 27.934 25.917 L 27.917 25.544 Z" style="fill: rgb(255, 255, 255);" fill-rule="evenodd"/>
  <path style="fill: rgb(255, 0, 3); fill-rule: evenodd;" d="M 16.125 25.761 L 17.162 25.645 C 17.769 26.146 18.411 26.726 19.315 27.149 C 19.443 27.207 19.432 27.246 19.409 27.285 C 18.283 26.795 17.078 26.39 16.125 25.761 M 12.931 26.12 L 15.088 25.878 C 16.445 26.832 17.173 26.864 18.791 27.391 C 18.844 27.439 18.707 27.451 18.642 27.439 C 17.467 27.236 14.808 26.681 13.729 26.374 C 13.376 26.273 12.96 26.13 12.931 26.12 Z M 12.685 44.51 L 14.874 34.999 L 5.971 26.903 L 12.928 26.12 C 12.703 27.356 17.417 27.855 18.008 27.719 C 18.046 27.868 16.837 27.921 16.704 27.932 C 15.412 27.998 13.71 27.623 13.181 27.488 C 13.197 27.824 13.421 28.112 13.739 28.213 C 14.62 28.491 16.372 28.488 16.845 28.44 C 16.007 28.913 14.74 28.791 14.333 28.866 C 14.43 29.494 15.909 29.382 16.295 29.307 C 16.549 29.259 16.713 29.52 16.883 29.671 C 18.57 31.328 18.688 34.023 19.84 35.37 C 21.185 36.643 20.114 38.394 19.207 39.314 C 18.098 40.437 17.36 40.699 17.061 40.989 C 15.731 42.314 14.263 43.495 12.683 44.51 Z M 22.026 13.75 C 22.211 14.117 22.602 14.488 22.879 14.924 C 22.735 14.235 22.443 13.583 22.022 13.018 C 21.918 13.251 21.918 13.517 22.026 13.75 Z M 29.033 25.672 L 39.933 26.848 L 30.957 35 L 33.35 46.955 L 22.952 40.832 L 12.158 46.795 L 12.563 44.996 C 14.386 43.935 26.074 35.458 28.999 32.607 C 29.704 31.922 30.895 30.522 31.174 30.236 C 31.454 29.951 32.112 29.683 32.256 29.612 C 32.4 29.542 33.181 28.991 33.326 28.893 C 33.469 28.796 33.929 28.509 33.929 28.509 L 35.243 27.883 C 35.229 27.851 35.195 27.833 35.161 27.838 C 35.161 27.838 33.353 28.186 33.136 28.244 C 32.919 28.3 32.361 28.19 32.05 28.244 C 31.517 28.322 30.969 29.368 30.674 29.786 C 29.844 30.954 27.465 33.16 25.483 32.67 C 24.398 32.409 22.953 29.225 22.584 28.259 C 22.428 27.836 21.857 27.65 21.197 27.51 C 20.475 27.363 18.655 26.065 17.985 25.552 L 20.729 19.442 L 21.874 20.773 L 23.331 24.396 L 23.611 24.488 C 23.168 23.273 22.451 21.044 22.248 20.122 C 21.961 19.818 20.898 18.066 20.708 17.825 C 20.645 17.674 20.624 17.51 20.645 17.347 C 20.645 17.317 21.755 17.568 22.228 17.619 C 22.228 17.599 22.244 17.571 22.156 17.535 C 21.898 17.431 20.7 17.157 20.702 17.13 C 20.719 16.954 20.702 16.81 20.79 16.725 C 21.161 16.75 22.547 17.117 22.876 17.202 C 22.973 17.226 22.947 17.127 22.907 17.111 C 22.689 17.029 21.98 16.812 21.721 16.706 C 21.316 16.541 21.145 16.521 20.989 16.399 C 20.849 16.205 20.825 15.951 20.923 15.734 C 21.298 15.862 22.405 16.399 23.329 16.775 C 23.379 16.794 23.437 16.738 23.396 16.719 C 23.152 16.599 21.941 15.909 21.839 15.855 C 21.482 15.652 21.288 15.549 21.197 15.361 C 21.094 15.163 21.083 14.932 21.167 14.725 C 21.48 14.82 22.607 15.761 22.959 15.951 C 23.119 16.039 23.304 16.1 23.137 15.951 C 22.936 15.795 21.888 14.969 21.772 14.746 C 21.739 14.564 21.748 14.376 21.8 14.199 C 21.821 14.135 22.573 14.841 22.897 15.143 C 23.484 15.953 27.221 23.402 27.945 23.596 C 29.328 23.962 31.335 23.449 32.511 22.784 C 32.928 22.562 33.306 22.275 33.637 21.936 C 34.167 21.406 34.722 21.428 35.284 21.757 C 35.531 21.903 36.963 21.984 37.326 22.046 C 37.304 22.104 37.257 22.152 37.202 22.176 C 36.693 22.225 35.582 22.294 35.125 22.513 C 34.813 22.648 34.482 22.735 34.142 22.768 C 33.782 22.75 33.426 22.854 33.129 23.063 C 32.08 23.684 30.414 25.032 29.064 25.644 Z"/>
  <path style="fill: rgb(194, 0, 1);" d="M 85.626 38.381 L 84.8 38.381 L 84.8 43.281 L 81.72 43.281 L 81.72 31.444 L 84.797 31.444 L 84.797 36.487 L 85.532 36.157 L 88.3 31.448 L 91.604 31.448 L 88.739 35.945 L 87.531 36.844 L 88.857 37.767 L 92.052 43.271 L 88.513 43.271 Z M 76.933 34.164 L 74.591 34.164 C 74.497 35.285 74.385 36.397 74.261 37.503 C 74.155 38.51 73.953 39.504 73.658 40.472 C 73.433 41.253 73.051 41.976 72.535 42.602 C 72.077 43.145 71.398 43.448 70.688 43.428 C 69.772 43.428 69.124 43.31 68.748 43.073 L 69.128 40.517 C 69.354 40.607 69.594 40.655 69.837 40.661 C 70.158 40.656 70.462 40.508 70.663 40.258 C 70.971 39.829 71.177 39.334 71.267 38.813 C 71.468 37.88 71.601 36.935 71.669 35.983 C 71.771 34.792 71.847 33.281 71.895 31.451 L 80.013 31.451 L 80.013 43.285 L 76.933 43.285 Z M 60.893 37.359 C 60.889 37.845 60.938 38.33 61.036 38.805 C 61.118 39.211 61.262 39.601 61.463 39.964 C 61.639 40.281 61.896 40.546 62.208 40.732 C 62.544 40.92 62.924 41.016 63.309 41.006 C 64.022 41.053 64.706 40.72 65.109 40.131 C 65.504 39.548 65.701 38.625 65.701 37.362 C 65.737 36.451 65.549 35.543 65.15 34.722 C 64.783 34.053 64.168 33.718 63.303 33.718 C 62.606 33.69 61.942 34.009 61.528 34.571 C 61.114 35.139 60.906 36.069 60.906 37.364 Z M 57.722 37.359 C 57.722 35.356 58.211 33.813 59.189 32.733 C 60.167 31.653 61.543 31.111 63.318 31.111 C 64.159 31.091 64.997 31.244 65.777 31.56 C 66.446 31.84 67.038 32.275 67.506 32.827 C 67.982 33.407 68.333 34.08 68.536 34.802 C 68.773 35.634 68.889 36.494 68.879 37.359 C 68.879 39.363 68.395 40.905 67.424 41.986 C 66.453 43.067 65.084 43.608 63.318 43.608 C 62.475 43.627 61.638 43.475 60.856 43.159 C 60.187 42.877 59.592 42.443 59.118 41.893 C 58.635 41.315 58.279 40.641 58.077 39.916 C 57.842 39.087 57.726 38.228 57.737 37.364 Z M 53.505 34.164 L 49.768 34.164 L 49.768 43.277 L 46.69 43.277 L 46.69 31.442 L 56.586 31.442 L 56.586 43.277 L 53.505 43.277 Z"/>
  <path d="M 51.029 18.12 C 49.418 18.082 46.299 23.734 46.486 26.419 C 48.489 25.869 50.713 20.28 51.04 18.11 M 56.552 19.52 C 56.764 19.978 54.647 22.091 52.611 22.984 C 53.859 21.052 55.727 19.765 56.544 19.531 Z M 74.376 22.048 C 73.549 23.339 72.499 25.43 71.529 26.407 C 71.226 26.836 70.061 26.331 70.202 25.378 C 70.202 24.481 71.477 21.521 71.855 20.551 C 71.797 20.597 71.752 20.657 71.722 20.724 C 71.155 21.777 70.019 23.97 68.835 25.648 C 68.284 26.434 67.816 27.489 66.697 26.75 C 66.369 26.538 66.506 24.769 66.66 24.378 C 65.231 26.15 63.883 27.114 62.858 27.177 C 61.734 27.247 61.577 26.097 61.572 25.199 C 60.765 26.13 58.177 27.852 56.998 26.688 C 56.59 26.284 56.581 25.364 56.645 24.775 C 55.48 25.758 54.953 26.351 53.581 26.855 C 52.349 27.307 51.079 26.816 50.966 25.387 C 50.707 25.312 50.522 24.943 50.465 24.778 C 50.446 24.719 50.625 24.631 50.881 24.521 C 51.559 22.215 52.934 20.463 54.011 19.617 C 54.711 19.065 56.248 18.215 57.317 18.895 C 59.685 20.424 55.534 23.676 52.214 24.499 C 52.039 25.276 52.027 26.21 53.068 25.924 C 54.171 25.615 55.446 24.91 57.248 23.009 C 57.728 21.921 60.213 17.79 62.076 18.9 C 62.786 19.322 62.792 19.728 62.712 20.336 C 62.639 20.988 62.412 21.612 62.049 22.157 C 61.963 22.256 61.745 22.157 61.538 22.039 C 61.186 21.838 61.029 21.653 61.092 21.446 C 61.433 20.883 61.666 20.26 61.778 19.611 C 59.778 21.413 58.331 24.606 58.02 26.167 C 59.191 26.428 60.737 25.021 61.979 23.846 C 63.305 21.366 63.88 20.346 65.622 19.099 C 66.695 18.33 68.256 19.165 68.306 19.849 C 68.381 20.656 68.206 21.466 67.806 22.171 C 67.686 22.366 67.085 22.097 66.837 21.732 C 66.708 21.545 66.815 21.457 66.906 21.124 C 67.04 20.597 67.092 20.052 67.057 19.509 C 65.68 20.295 62.734 24.852 63.145 26.288 C 64.073 26.263 65.459 24.411 66.291 23.623 C 66.568 23.348 67.099 23.422 67.463 23.676 C 67.719 23.857 67.958 24.011 67.972 24.282 C 67.986 24.551 67.972 25.009 67.972 25.329 C 69.471 23.124 70.005 21.65 70.888 20.198 C 71.596 19.032 72.095 18.782 72.491 18.798 C 72.929 18.818 73.538 18.925 73.805 19.217 C 73.924 19.344 71.764 24.265 71.752 24.855 C 73.654 22.204 74.532 20.389 75.83 19.069 C 76.014 18.964 76.23 18.932 76.437 18.98 C 77.238 19.063 77.318 19.344 76.93 20.008 C 73.756 25.43 75.828 26.452 75.801 26.282 C 75.524 26.938 75.043 27.163 74.627 27.152 C 73.643 27.131 72.898 25.372 74.37 22.058 Z M 81.815 19.783 C 81.832 19.972 80.953 21.04 80.628 21.286 C 80.15 21.645 78.787 22.793 78.286 22.892 C 79.041 21.846 80.671 19.991 81.821 19.793 Z M 80.573 18.98 C 78.741 19.949 77.316 21.543 76.561 23.471 C 76.31 23.603 76.029 23.663 75.748 23.645 C 75.564 23.645 75.528 23.748 75.637 23.951 C 75.765 24.257 75.989 24.515 76.274 24.684 C 76.04 26.141 76.797 27.44 78.538 26.871 C 79.917 26.425 81.57 24.968 82.882 23.535 C 81.693 25.583 80.739 27.757 80.039 30.018 C 80.427 30.354 80.995 31.14 81.22 30.497 C 82.027 28.734 82.974 27.038 84.055 25.428 C 85.486 23.389 86.89 21.57 87.958 20.713 C 86.601 22.879 86.303 24.995 86.579 25.491 C 87.145 26.557 87.747 26.395 88.56 25.803 C 89.508 25.114 90.489 23.846 91.073 23.102 C 90.569 24.161 90.071 25.943 90.291 26.288 C 90.465 26.51 90.692 26.685 90.952 26.797 C 91.148 26.885 91.302 26.762 91.504 26.497 C 92.588 25.119 94.132 22.391 94.498 22.13 C 94.261 23.066 93.617 25.987 93.801 26.21 C 94.473 27.009 95.002 26.869 95.179 26.629 C 96.871 24.348 98.499 22.013 99.185 21.196 C 98.204 23.226 97.614 25.304 97.764 26.495 C 97.846 26.976 98.441 27.321 98.893 27.434 C 99.041 27.475 99.05 27.374 99.084 27.189 C 99.45 25.259 99.78 23.483 100.78 21.695 C 101.357 20.666 101.698 20.063 101.634 19.746 C 101.437 19.435 101.181 19.164 100.883 18.947 C 100.676 18.818 100.331 19.093 100 19.322 C 98.957 20.025 97.557 21.975 96.066 23.791 C 96.33 22.63 96.698 21.495 97.168 20.399 C 97.275 20.204 97.201 19.886 96.785 19.71 C 96.433 19.562 96.234 19.35 95.653 19.826 C 94.733 20.611 93.668 21.984 92.867 22.876 C 93.167 22.264 93.694 21.289 94.093 20.526 C 94.341 20.182 94.368 19.939 94.231 19.788 C 94.02 19.584 93.797 19.393 93.561 19.217 C 93.361 19.099 93.106 19.14 92.953 19.313 C 91.941 20.989 88.685 24.986 88.051 25.015 C 88.159 24.463 89.216 21.75 89.611 21.143 C 89.816 20.898 89.828 20.544 89.638 20.286 C 89.392 19.962 89.107 19.668 88.792 19.41 C 88.569 19.34 88.328 19.368 88.125 19.482 C 87.075 20.033 84.819 23.033 83.942 24.405 C 84.152 23.769 86.946 19.498 87.092 19.346 C 87.201 19.218 87.181 19.024 87.048 18.919 C 86.523 18.613 86.003 18.027 85.67 18.509 C 84.48 20.162 83.634 21.728 82.156 23.306 C 80.68 24.885 79.355 25.709 78.357 26.009 C 77.318 26.323 77.842 24.51 77.941 24.196 C 79.206 23.852 84.695 20.788 82.472 18.771 C 82.187 18.531 81.024 18.757 80.573 18.98 Z M 89.607 17.051 C 89.486 16.858 89.574 16.451 89.676 16.167 C 91.506 18.857 102.903 16.851 104.186 13.652 C 104.277 13.429 104.335 13.376 104.531 13.618 C 104.936 14.119 104.999 14.814 104.69 15.379 C 102.696 18.429 91.558 20.143 89.607 17.051 Z M 104.57 19.28 C 104.062 18.73 103.343 18.73 103.073 19.149 C 101.825 21.241 100.959 23.537 100.516 25.932 C 100.504 26.304 100.691 26.655 101.006 26.852 C 101.406 26.949 102.692 23.405 102.934 23.011 C 103.524 23.151 104.142 22.95 104.536 22.491 C 103.767 24.226 103.844 25.965 104.03 26.422 C 104.139 26.711 104.393 26.921 104.698 26.974 C 104.765 26.974 104.765 26.974 104.79 26.888 C 105.404 24.418 106.349 22.042 107.597 19.824 C 107.693 19.684 107.718 19.506 107.661 19.346 C 107.572 19.153 107.012 18.872 106.812 18.815 C 106.611 18.757 106.515 18.892 106.385 19.077 C 105.377 20.526 104.426 21.73 103.464 21.945 C 104.051 20.615 104.649 19.371 104.57 19.286 Z M 109.003 22.311 C 108.423 23.45 107.977 24.652 107.675 25.894 C 108.609 25.775 110.032 23.686 109.003 22.323 Z M 110.319 19.057 C 110.025 18.763 109.438 18.713 109.308 18.886 C 108.381 19.998 107.645 21.257 107.135 22.611 C 106.66 23.882 106.704 25.604 107.098 26.125 C 107.493 26.732 107.879 27.009 108.256 26.951 C 110.264 26.561 111.358 23.686 110.079 22.469 C 110.631 22.138 112.303 20.991 113.149 20.069 C 112.227 21.545 110.945 25.099 111.27 25.596 C 111.506 26.112 111.876 26.558 112.339 26.888 C 112.954 27.183 114.865 24.836 115.37 24.089 C 115.117 24.915 115.12 26.194 115.607 26.544 C 116.05 26.858 116.197 26.984 116.756 26.684 C 117.838 26.103 119.156 24.405 119.614 23.959 C 119.178 25.67 119.85 27.147 120.595 27.214 C 121.031 27.214 121.448 27.029 121.743 26.707 C 120.916 25.329 122.636 21.686 123.275 20.153 C 123.392 20.008 123.392 19.799 123.275 19.652 C 123.133 19.438 122.972 19.237 122.793 19.052 C 125.061 18.718 126.926 17.777 128.745 16.392 C 129.26 16.002 130.266 15.216 130.02 14.494 C 129.651 13.417 129.761 13.152 129.169 13.833 C 126.728 16.632 119.489 19.689 117.271 17.691 C 117.068 19.592 120.721 19.385 121.774 19.228 C 120.861 20.804 119.082 24.331 116.96 25.535 C 117.381 24.009 117.96 22.532 118.688 21.126 C 118.889 20.592 118.84 20.258 118.351 19.876 C 118.168 19.757 118.016 19.653 117.897 19.568 C 117.76 19.449 117.687 19.568 117.528 19.812 C 116.894 20.832 113.91 25.723 112.805 25.772 C 113.418 23.857 114.143 21.979 114.976 20.149 C 115.109 19.873 115.237 19.578 115.161 19.455 C 114.961 19.145 114.672 18.902 114.334 18.755 C 114.141 18.658 113.604 18.872 113.083 19.286 C 111.904 20.218 110.011 21.418 109.43 21.658 C 109.722 21 110.081 20.373 110.502 19.788 C 110.656 19.5 110.531 19.278 110.319 19.065 Z M 51.126 17.616 C 45.89 17.322 42.901 27.657 46.387 27.051 C 49.933 26.434 52.054 21.188 52.399 19.416 C 53.177 15.439 50.156 13.96 47.313 12.367 C 45.029 11.086 45.569 9.359 47.641 7.739 C 51.548 4.682 59.156 1.783 65.357 4.171 L 64.993 3.013 C 59.13 0.136 45.288 4.181 44.697 9.865 C 44.596 10.844 45.276 11.587 46.379 12.403 C 48.115 13.684 50.438 14.274 50.972 16.509 C 51.049 16.873 51.101 17.244 51.126 17.616 Z" style="fill: rgb(194, 0, 1); fill-rule: evenodd;"/>
  <path d="M 53.764 49.105 C 53.764 48.905 53.504 48.775 53.304 48.775 C 52.974 48.775 52.704 49.095 52.504 49.305 C 51.314 50.585 50.214 51.955 49.184 53.205 L 49.584 51.525 C 49.674 51.165 50.064 49.495 50.064 49.265 C 50.064 48.975 50.014 48.815 49.564 48.815 C 48.934 48.815 48.054 52.785 45.534 55.095 L 46.404 55.045 C 46.524 55.035 46.834 54.675 46.914 54.585 C 47.694 53.635 48.524 51.895 49.154 50.525 L 48.834 51.865 C 48.754 52.215 48.214 54.455 48.214 54.615 C 48.214 54.795 48.244 54.895 48.464 54.895 C 48.634 54.895 48.734 54.765 48.814 54.665 C 50.134 52.995 51.344 51.435 52.684 49.975 C 51.784 51.605 50.804 53.495 50.804 54.705 C 50.804 54.885 50.854 54.935 51.154 54.935 C 51.324 54.935 51.474 54.825 51.474 54.675 C 51.474 53.255 52.774 51.075 53.624 49.555 C 53.674 49.465 53.764 49.225 53.764 49.105 ZM 58.259 48.875 C 58.139 48.655 57.869 48.575 57.539 48.575 C 56.699 48.575 55.399 49.095 54.559 49.375 L 53.729 49.645 C 53.689 49.665 53.669 49.685 53.669 49.715 C 53.669 49.815 53.889 49.985 54.059 50.125 L 54.579 49.965 C 54.529 50.055 54.479 50.145 54.429 50.235 C 53.839 51.445 53.319 52.795 52.719 53.975 C 52.659 54.095 52.599 54.305 52.479 54.325 C 52.349 54.355 52.099 54.465 52.069 54.655 C 52.059 54.675 52.059 54.715 52.059 54.735 C 52.059 54.885 52.159 54.975 52.339 55.015 C 52.359 55.015 52.369 55.025 52.379 55.025 C 52.519 55.025 52.669 54.905 52.789 54.905 L 52.959 54.885 L 53.509 54.885 C 53.749 54.885 54.679 54.875 54.929 54.865 C 55.749 54.825 56.879 54.545 56.879 53.545 C 56.879 52.225 55.279 51.565 55.009 51.445 C 54.959 51.435 54.929 51.425 54.889 51.425 C 54.709 51.425 54.649 51.665 54.629 51.925 C 55.209 52.175 56.209 52.625 56.209 53.545 C 56.209 54.285 55.009 54.325 54.449 54.325 C 54.259 54.325 53.689 54.335 53.299 54.345 C 53.309 54.305 55.049 50.395 55.049 50.395 C 55.139 50.195 55.279 49.925 55.449 49.695 C 56.089 49.495 57.219 49.125 57.609 49.125 C 57.669 49.125 57.719 49.135 57.729 49.165 C 57.759 49.195 57.769 49.245 57.769 49.285 C 57.769 49.595 57.319 50.065 57.209 50.295 C 57.299 50.425 57.479 50.485 57.619 50.485 C 57.669 50.485 57.719 50.485 57.749 50.465 C 57.799 50.445 58.339 49.755 58.339 49.195 C 58.339 49.085 58.319 48.965 58.259 48.875 ZM 62.369 50.445 C 62.369 49.895 62.099 49.415 61.459 49.415 C 60.459 49.415 59.419 50.585 59.399 51.645 C 59.659 51.625 59.929 51.515 60.019 51.445 C 60.059 51.395 60.179 51.005 60.349 50.745 C 60.539 50.435 60.929 49.975 61.329 49.975 C 61.649 49.975 61.759 50.135 61.759 50.425 C 61.759 51.775 60.309 54.365 58.699 54.365 C 58.189 54.365 57.919 54.045 57.919 53.545 C 57.919 52.225 58.889 50.575 59.999 49.825 C 60.369 49.575 61.009 49.285 61.359 49.285 C 61.499 49.285 61.589 49.135 61.589 48.995 C 61.549 48.855 61.379 48.775 61.249 48.775 C 60.729 48.775 59.999 49.115 59.579 49.405 C 58.309 50.295 57.299 52.025 57.299 53.555 C 57.299 54.375 57.729 54.955 58.679 54.955 C 60.619 54.955 62.369 52.095 62.369 50.445 ZM 67.695 50.015 L 67.015 50.105 C 66.575 51.015 66.465 51.285 65.775 52.005 C 65.025 52.785 63.255 54.395 63.015 54.395 C 63.005 54.395 63.005 54.395 63.005 54.385 C 63.005 54.385 63.015 54.375 63.015 54.375 C 63.015 54.135 65.115 50.015 65.135 49.535 C 65.135 49.525 65.135 49.505 65.135 49.485 C 65.135 49.025 64.925 48.785 64.525 48.785 C 63.435 48.785 62.385 51.025 62.385 52.065 C 62.665 51.995 62.765 51.935 62.855 51.875 C 63.005 51.765 63.065 51.735 63.095 51.555 C 63.155 51.075 63.845 49.385 64.435 49.385 C 64.465 49.385 64.465 49.385 64.465 49.415 C 64.465 49.425 64.465 49.455 64.465 49.475 C 64.465 49.485 64.465 49.495 64.465 49.505 C 64.485 50.025 62.345 53.985 62.345 54.445 C 62.345 54.665 62.355 54.995 62.865 54.995 C 63.525 54.995 64.975 53.625 65.715 52.895 L 65.105 54.225 C 64.735 55.025 64.235 56.115 63.885 56.585 C 63.835 56.665 63.715 56.875 63.715 56.955 C 63.715 57.085 63.815 57.155 63.945 57.155 C 64.205 57.155 64.415 56.825 64.615 56.535 C 64.965 56.025 65.235 55.515 65.575 54.775 L 67.695 50.015 ZM 74.091 49.835 C 74.091 49.185 73.681 48.775 73.001 48.775 C 71.191 48.775 69.011 51.425 69.011 53.055 C 69.011 54.475 69.801 54.955 70.831 54.955 C 71.811 54.955 72.781 54.225 73.131 53.265 C 73.001 53.145 72.821 53.055 72.631 53.055 C 72.231 53.825 71.621 54.365 70.771 54.365 C 70.021 54.365 69.691 53.795 69.681 53.135 C 69.661 51.405 71.811 49.335 72.941 49.335 C 73.281 49.335 73.481 49.505 73.481 49.845 C 73.481 50.505 72.821 51.195 72.261 51.515 C 71.911 51.725 71.961 51.665 71.511 51.845 C 71.351 51.905 71.201 52.165 71.201 52.335 C 71.201 52.395 71.271 52.405 71.361 52.405 C 71.641 52.405 72.211 52.235 72.311 52.175 C 73.151 51.735 74.091 50.815 74.091 49.835 ZM 82.087 50.325 C 82.087 50.155 82.027 50.095 81.837 50.095 C 81.717 50.095 81.517 50.175 81.437 50.335 C 81.287 50.665 80.037 51.815 80.037 51.815 C 79.367 52.545 78.597 53.565 77.747 54.165 C 77.897 53.085 78.897 51.285 79.397 50.395 C 79.457 50.275 79.617 49.985 79.617 49.915 C 79.617 49.755 79.567 49.685 79.377 49.685 C 79.247 49.685 79.057 49.765 78.977 49.925 C 78.817 50.255 78.577 50.555 78.317 50.815 L 77.317 51.825 C 76.637 52.515 75.907 53.515 75.077 54.115 C 75.507 52.745 77.097 50.415 77.097 49.475 C 77.097 49.025 76.797 48.785 76.347 48.785 C 75.237 48.785 73.897 51.135 73.897 51.855 C 73.897 51.975 73.957 52.115 74.097 52.115 C 74.257 52.115 74.567 51.985 74.617 51.695 C 74.737 50.995 75.647 49.375 76.307 49.375 C 76.367 49.375 76.427 49.405 76.427 49.515 C 76.427 50.455 74.277 53.695 74.277 54.595 C 74.277 54.845 74.467 54.935 74.697 54.935 C 75.327 54.935 76.957 53.125 77.767 52.215 L 77.647 52.465 C 77.347 53.105 77.007 53.925 77.007 54.595 C 77.007 54.845 77.197 54.935 77.427 54.935 C 77.987 54.935 79.657 53.155 80.427 52.325 L 80.307 52.625 C 80.037 53.305 79.737 54.005 79.717 54.975 L 80.127 54.915 C 80.287 54.885 80.417 54.815 80.417 54.655 C 80.417 53.565 81.407 51.655 81.867 50.795 C 81.927 50.685 82.087 50.385 82.087 50.325 ZM 89.236 51.455 C 89.236 51.765 88.836 52.435 88.466 52.435 C 88.366 52.435 88.346 52.375 88.346 52.285 C 88.346 52.245 88.356 52.175 88.356 52.125 C 88.356 51.775 88.696 51.445 88.986 51.345 C 89.076 51.315 89.146 51.295 89.206 51.265 L 89.206 51.275 C 89.206 51.325 89.236 51.395 89.236 51.455 Z M 88.266 50.125 C 88.266 49.985 88.186 49.665 88.006 49.665 C 87.886 49.665 87.636 50.075 87.596 50.175 C 87.116 51.185 86.786 52.245 86.416 53.255 L 86.346 49.355 C 86.346 49.095 86.306 48.805 85.906 48.805 C 85.606 48.805 85.196 49.745 85.146 49.865 L 84.146 52.105 C 83.706 53.075 83.216 54.085 82.376 55.035 C 82.726 55.095 82.836 55.125 82.966 55.125 C 83.206 55.125 83.356 54.895 83.556 54.615 C 84.266 53.555 85.246 51.235 85.716 50.125 L 85.766 54.525 C 85.766 54.675 85.836 54.925 86.056 54.925 C 86.376 54.925 86.646 54.225 86.766 53.995 C 87.156 53.175 87.596 51.665 88.126 50.565 C 88.196 50.415 88.266 50.275 88.266 50.125 Z M 89.596 53.125 L 87.586 53.125 C 87.406 53.125 87.346 53.265 87.296 53.385 L 87.206 53.655 L 89.206 53.655 C 89.396 53.655 89.456 53.515 89.496 53.375 L 89.596 53.125 Z M 89.826 51.445 C 89.826 51.225 89.646 50.995 89.456 50.995 L 89.426 50.995 C 89.426 50.845 89.356 50.715 89.126 50.715 C 88.756 50.715 87.736 51.345 87.736 52.095 C 87.736 52.555 87.816 53.005 88.386 53.005 C 89.096 53.005 89.826 52.095 89.826 51.445 ZM 90.476 54.325 C 90.356 54.375 90.196 54.445 90.106 54.445 C 90.006 54.445 89.936 54.435 89.936 54.355 C 89.936 54.255 90.046 54.225 90.126 54.225 C 90.246 54.225 90.376 54.285 90.476 54.325 Z M 94.276 50.805 C 94.276 50.205 93.896 49.935 93.296 49.935 C 92.296 49.935 91.376 51.115 91.376 51.295 C 91.376 51.375 91.586 51.565 91.686 51.565 C 91.776 51.565 92.506 50.505 93.226 50.505 C 93.476 50.505 93.646 50.585 93.646 50.855 C 93.646 51.825 91.856 53.375 91.026 53.995 C 90.756 53.875 90.366 53.725 90.096 53.725 C 89.656 53.725 89.376 54.005 89.376 54.415 C 89.376 54.775 89.726 54.955 90.056 54.955 C 90.406 54.955 90.756 54.745 91.056 54.575 C 91.506 54.775 91.986 54.955 92.476 54.955 C 92.686 54.955 93.076 54.935 93.266 54.865 C 93.376 54.815 93.606 54.715 93.606 54.465 C 93.606 54.345 93.486 54.205 93.456 54.205 C 93.416 54.205 93.366 54.215 93.316 54.235 C 93.086 54.315 92.826 54.375 92.576 54.375 C 92.246 54.375 91.916 54.305 91.596 54.215 C 92.596 53.485 94.276 51.895 94.276 50.805 ZM 99.077 53.605 C 99.077 53.535 99.027 53.365 98.877 53.365 C 98.817 53.365 98.737 53.405 98.697 53.435 C 98.677 53.465 97.547 54.425 97.067 54.425 C 96.917 54.425 96.867 54.345 96.867 54.225 C 96.867 54.085 96.927 54.005 96.997 53.985 C 98.397 53.495 98.607 52.735 98.607 52.425 C 98.607 52.025 98.367 51.775 97.917 51.775 C 97.357 51.775 96.767 52.465 95.827 53.345 C 95.777 53.405 95.567 53.645 95.567 53.715 C 95.567 53.875 95.737 54.005 95.817 54.005 C 96.097 54.005 97.307 52.305 97.917 52.305 C 97.987 52.305 97.997 52.325 97.997 52.365 C 97.997 52.385 97.997 52.395 97.997 52.415 C 97.997 52.825 97.327 53.335 96.937 53.435 C 96.617 53.515 96.247 53.795 96.247 54.215 C 96.247 54.655 96.527 54.965 97.047 54.965 C 97.617 54.965 98.377 54.365 98.787 54.045 C 98.967 53.895 99.077 53.845 99.077 53.605 ZM 99.765 54.515 C 99.765 54.385 99.655 54.265 99.475 54.265 C 99.175 54.265 98.855 54.465 98.855 54.735 C 98.855 54.845 98.965 54.965 99.145 54.965 C 99.445 54.965 99.765 54.775 99.765 54.515 ZM 107.072 50.325 C 107.072 49.655 106.782 48.775 105.942 48.775 C 105.132 48.775 104.572 49.655 104.272 50.265 C 103.552 51.735 102.982 53.305 102.162 54.735 C 102.162 54.835 102.312 54.955 102.402 54.955 C 102.532 54.955 102.802 54.915 102.872 54.835 C 103.022 54.665 103.092 54.455 103.172 54.265 L 104.892 50.425 C 105.062 50.055 105.382 49.365 105.892 49.365 C 106.372 49.365 106.402 49.955 106.402 50.305 C 106.402 52.135 104.782 51.365 104.782 52.395 C 104.782 53.395 106.052 52.785 106.052 53.555 C 106.052 54.285 104.852 54.325 104.292 54.325 C 104.032 54.325 103.772 54.335 103.442 54.345 C 103.362 54.445 103.292 54.685 103.292 54.885 L 104.052 54.885 C 104.292 54.885 104.522 54.875 104.772 54.865 C 105.592 54.825 106.722 54.545 106.722 53.555 C 106.722 52.335 105.452 52.685 105.452 52.425 C 105.452 52.155 107.072 52.175 107.072 50.325 ZM 109.382 52.415 C 109.282 52.765 109.022 53.275 108.672 53.275 C 108.532 53.275 108.522 53.155 108.522 53.045 C 108.522 53.025 108.522 53.015 108.522 52.995 C 108.522 52.725 108.862 52.355 109.132 52.275 C 109.172 52.265 109.222 52.245 109.262 52.245 C 109.332 52.245 109.392 52.275 109.392 52.355 C 109.392 52.375 109.392 52.395 109.382 52.415 Z M 110.762 53.545 C 110.762 53.395 110.632 53.345 110.542 53.345 C 110.502 53.345 110.482 53.355 110.472 53.365 C 110.352 53.485 109.482 54.195 109.162 54.315 C 109.342 53.905 110.232 52.245 110.352 51.885 C 110.102 51.825 109.992 51.825 109.892 51.825 C 109.852 51.825 109.822 51.845 109.772 51.885 C 109.692 51.755 109.542 51.665 109.232 51.665 C 108.822 51.665 107.882 52.195 107.882 52.905 C 107.882 53.315 108.032 53.725 108.312 53.725 L 108.322 53.745 C 108.162 53.915 107.572 54.375 107.402 54.375 C 107.272 54.375 107.252 54.295 107.252 54.225 C 107.252 54.185 107.262 54.155 107.262 54.135 C 107.272 54.005 107.462 53.935 107.512 53.745 C 107.512 53.715 107.522 53.695 107.522 53.675 C 107.522 53.505 107.432 53.355 107.212 53.335 C 107.202 53.335 107.182 53.335 107.172 53.335 C 106.852 53.335 106.712 53.745 106.682 53.975 C 106.672 54.025 106.662 54.085 106.662 54.145 C 106.662 54.485 106.822 54.935 107.302 54.935 C 107.722 54.935 108.162 54.615 108.512 54.285 C 108.442 54.435 108.382 54.575 108.382 54.645 C 108.382 54.885 108.632 54.965 108.822 54.965 C 109.552 54.965 110.352 54.185 110.602 53.955 C 110.752 53.815 110.762 53.715 110.762 53.595 C 110.762 53.575 110.762 53.565 110.762 53.545 ZM 111.409 56.035 C 111.199 56.425 110.859 56.925 110.639 56.925 L 110.639 56.915 C 110.639 56.755 111.059 56.335 111.409 56.035 Z M 113.919 53.635 C 113.919 53.565 113.849 53.415 113.739 53.415 C 113.689 53.415 113.499 53.545 113.459 53.565 L 112.589 54.355 L 112.589 54.295 C 112.589 53.935 112.429 53.805 112.429 53.765 C 112.429 53.745 112.439 53.745 112.469 53.745 C 112.479 53.745 112.499 53.745 112.509 53.745 C 112.519 53.745 112.529 53.745 112.539 53.745 C 112.939 53.455 113.419 53.045 113.419 52.515 C 113.419 52.055 113.079 51.775 112.609 51.775 C 111.869 51.775 111.479 52.465 110.519 53.375 C 110.459 53.435 110.259 53.685 110.259 53.765 C 110.259 53.935 110.439 54.085 110.519 54.085 C 110.799 54.085 111.869 52.355 112.619 52.355 C 112.749 52.355 112.799 52.435 112.799 52.545 C 112.799 52.885 112.169 53.485 111.889 53.485 C 111.629 53.485 111.119 53.545 111.119 53.885 C 111.119 54.125 111.279 54.225 111.509 54.225 C 111.719 54.225 111.839 54.075 111.989 54.075 C 111.999 54.075 111.999 54.085 111.999 54.115 C 111.999 54.165 111.979 54.275 111.979 54.305 C 111.979 54.505 111.879 54.775 111.809 54.965 C 111.749 55.115 110.059 56.355 110.059 57.015 C 110.059 57.315 110.209 57.475 110.539 57.475 C 111.259 57.475 112.049 56.045 112.259 55.505 C 112.379 55.195 113.299 54.445 113.579 54.175 C 113.729 54.045 113.919 53.935 113.919 53.635 ZM 117.237 53.655 C 117.247 53.645 117.257 53.625 117.257 53.595 C 117.257 53.495 117.177 53.355 117.077 53.355 C 117.017 53.355 116.897 53.425 116.847 53.465 C 116.687 53.615 116.477 53.665 116.287 53.675 C 116.297 53.645 116.297 53.595 116.297 53.565 C 116.297 53.495 116.287 53.445 116.267 53.405 C 116.187 53.105 115.867 52.905 115.627 52.905 C 115.587 52.905 115.537 52.905 115.507 52.925 C 115.237 53.025 115.157 53.285 115.157 53.485 C 115.157 53.495 115.157 53.515 115.157 53.535 C 115.187 53.815 115.337 54.005 115.477 54.095 C 115.347 54.245 115.097 54.425 114.867 54.425 C 114.647 54.425 114.527 54.225 114.527 54.025 C 114.527 53.945 114.547 53.865 114.577 53.795 C 114.727 53.515 115.427 52.225 115.527 51.915 C 115.277 51.845 115.157 51.845 115.037 51.845 C 114.957 51.845 114.647 52.345 114.607 52.425 C 114.517 52.635 114.147 53.055 113.647 53.445 C 113.557 53.505 113.497 53.625 113.497 53.725 C 113.497 53.855 113.567 54.015 113.697 54.015 C 113.697 54.015 113.817 53.935 113.927 53.855 L 113.927 53.865 C 113.907 53.935 113.907 54.005 113.907 54.085 C 113.907 54.485 114.147 54.965 114.737 54.965 C 115.227 54.965 115.797 54.665 116.077 54.225 C 116.507 54.215 116.987 54.105 117.237 53.655 ZM 122.579 53.545 C 122.579 53.405 122.449 53.355 122.359 53.355 C 122.329 53.355 122.299 53.365 122.289 53.375 C 122.179 53.495 121.319 54.175 120.989 54.305 L 121.009 54.265 L 121.959 52.405 C 122.059 52.225 122.109 52.075 122.179 51.885 C 121.919 51.845 121.819 51.845 121.709 51.845 C 121.599 51.845 121.379 52.105 121.299 52.175 C 120.409 53.125 119.579 53.925 119.249 54.155 C 119.459 53.745 120.259 52.245 120.379 51.885 C 120.129 51.845 120.019 51.845 119.909 51.845 C 119.809 51.845 119.579 52.105 119.509 52.175 C 118.439 53.305 117.569 54.375 117.249 54.375 C 117.119 54.375 117.099 54.295 117.099 54.225 C 117.099 54.185 117.109 54.155 117.109 54.135 C 117.119 54.015 117.309 53.935 117.359 53.745 C 117.359 53.715 117.369 53.705 117.369 53.675 C 117.369 53.515 117.279 53.365 117.059 53.345 C 117.049 53.345 117.029 53.345 117.009 53.345 C 116.699 53.345 116.559 53.745 116.529 53.975 C 116.519 54.025 116.509 54.085 116.509 54.155 C 116.509 54.495 116.669 54.935 117.149 54.935 C 117.639 54.935 118.309 54.295 118.799 53.765 C 118.599 54.135 118.409 54.525 118.409 54.645 C 118.409 54.655 118.409 54.655 118.409 54.665 C 118.409 54.765 118.559 54.965 118.749 54.965 C 119.179 54.965 120.119 54.125 120.689 53.575 C 120.469 54.005 120.199 54.525 120.199 54.645 C 120.199 54.885 120.449 54.965 120.639 54.965 C 121.029 54.965 122.169 54.185 122.419 53.955 C 122.569 53.825 122.579 53.715 122.579 53.585 C 122.579 53.565 122.579 53.565 122.579 53.545 ZM 127.436 53.545 C 127.436 53.405 127.306 53.355 127.216 53.355 C 127.186 53.355 127.156 53.365 127.146 53.375 C 127.036 53.495 126.166 54.185 125.836 54.315 C 125.876 54.245 125.946 54.115 126.056 53.895 L 126.806 52.405 C 126.866 52.275 126.976 52.105 127.026 51.825 L 126.446 51.825 C 126.266 52.045 126.126 52.465 125.976 52.625 C 125.566 53.075 125.146 53.485 124.876 53.615 C 124.876 53.595 124.876 53.565 124.876 53.555 C 124.876 53.495 124.876 53.435 124.856 53.395 C 124.776 53.095 124.456 52.905 124.216 52.905 C 124.176 52.905 124.126 52.905 124.096 52.925 C 123.826 53.025 123.746 53.285 123.746 53.485 C 123.746 53.495 123.746 53.515 123.746 53.535 C 123.776 53.815 123.926 54.005 124.066 54.095 C 123.936 54.245 123.686 54.425 123.456 54.425 C 123.236 54.425 123.116 54.225 123.116 54.025 C 123.116 53.945 123.136 53.865 123.166 53.795 C 123.316 53.515 124.016 52.225 124.116 51.915 C 123.866 51.835 123.746 51.835 123.626 51.835 C 123.546 51.835 123.236 52.345 123.196 52.425 C 123.106 52.635 122.736 53.055 122.236 53.445 C 122.146 53.505 122.086 53.625 122.086 53.725 C 122.086 53.855 122.156 54.015 122.286 54.015 C 122.286 54.015 122.406 53.935 122.516 53.855 L 122.516 53.865 C 122.496 53.935 122.496 54.005 122.496 54.085 C 122.496 54.485 122.736 54.965 123.326 54.965 C 123.816 54.965 124.386 54.665 124.666 54.225 C 124.916 54.195 125.156 54.075 125.356 53.935 C 125.216 54.215 125.066 54.525 125.066 54.645 C 125.066 54.885 125.306 54.965 125.506 54.965 C 125.886 54.965 127.026 54.185 127.276 53.955 C 127.426 53.825 127.436 53.715 127.436 53.585 C 127.436 53.565 127.436 53.565 127.436 53.545 Z" transform="matrix(1, 0, 0, 1, 0, 0)" style="fill: rgb(194, 0, 1); white-space: pre;"/>
</svg>